#N canvas 109 372 1960 916 10;
#X obj 481 130 textfile;
#X msg 360 44 rewind;
#X obj 109 360 *~;
#X obj 126 319 osc~;
#X floatatom 126 296 5 0 0 0 - - -;
#X obj 265 360 *~;
#X obj 282 319 osc~;
#X floatatom 282 296 5 0 0 0 - - -;
#X obj 413 361 *~;
#X obj 432 320 osc~;
#X floatatom 432 297 5 0 0 0 - - -;
#X obj 467 63 r start;
#X text 363 23 play;
#X msg 80 273 \$1 2;
#X msg 237 277 \$1 2;
#X msg 387 287 \$1 2;
#X obj 80 298 line~;
#X obj 237 300 line~;
#X obj 387 310 line~;
#X obj 934 454 dac~;
#X obj 481 178 s h1;
#X obj 80 249 r h1;
#X obj 566 178 s h3;
#X obj 523 178 s h2;
#X obj 237 254 r h2;
#X obj 387 264 r h3;
#X obj 481 156 unpack f f f f f f f f f f f f f f f f f f f f, f 116
;
#X obj 608 178 s h4;
#X obj 651 178 s h5;
#X obj 693 178 s h6;
#X obj 736 178 s h7;
#X obj 779 178 s h8;
#X obj 821 179 s h9;
#X obj 864 179 s h10;
#X obj 906 180 s h11;
#X obj 949 180 s h12;
#X obj 992 179 s h13;
#X obj 1034 180 s h14;
#X obj 1077 180 s h15;
#X obj 1119 179 s h16;
#X obj 1162 179 s h17;
#X obj 1205 178 s h18;
#X obj 1247 179 s h19;
#X obj 1290 179 s h20;
#X obj 573 360 *~;
#X obj 592 319 osc~;
#X floatatom 592 296 5 0 0 0 - - -;
#X msg 547 286 \$1 2;
#X obj 547 309 line~;
#X obj 547 263 r h4;
#X obj 727 359 *~;
#X obj 746 318 osc~;
#X floatatom 746 295 5 0 0 0 - - -;
#X msg 701 285 \$1 2;
#X obj 701 308 line~;
#X obj 887 358 *~;
#X obj 906 317 osc~;
#X floatatom 906 294 5 0 0 0 - - -;
#X msg 861 284 \$1 2;
#X obj 861 307 line~;
#X obj 701 262 r h5;
#X obj 861 261 r h6;
#X obj 1044 359 *~;
#X obj 1063 318 osc~;
#X floatatom 1063 295 5 0 0 0 - - -;
#X msg 1018 285 \$1 2;
#X obj 1018 308 line~;
#X obj 1204 358 *~;
#X obj 1223 317 osc~;
#X floatatom 1223 294 5 0 0 0 - - -;
#X msg 1178 284 \$1 2;
#X obj 1178 307 line~;
#X obj 1358 357 *~;
#X obj 1377 316 osc~;
#X floatatom 1377 293 5 0 0 0 - - -;
#X msg 1332 283 \$1 2;
#X obj 1332 306 line~;
#X obj 1518 356 *~;
#X obj 1537 315 osc~;
#X floatatom 1537 292 5 0 0 0 - - -;
#X msg 1492 282 \$1 2;
#X obj 1492 305 line~;
#X obj 1018 262 r h7;
#X obj 1178 261 r h8;
#X obj 1332 260 r h9;
#X obj 1492 259 r h10;
#X obj 1517 381 /~ 20;
#X obj 1357 382 /~ 20;
#X obj 1203 383 /~ 20;
#X obj 1043 384 /~ 20;
#X obj 886 383 /~ 20;
#X obj 726 384 /~ 20;
#X obj 572 385 /~ 20;
#X obj 412 386 /~ 20;
#X obj 265 388 /~ 20;
#X obj 110 386 /~ 20;
#X obj 1682 367 *~;
#X obj 1699 326 osc~;
#X floatatom 1699 303 5 0 0 0 - - -;
#X obj 1838 367 *~;
#X obj 1855 326 osc~;
#X floatatom 1855 303 5 0 0 0 - - -;
#X obj 1986 368 *~;
#X obj 2005 327 osc~;
#X floatatom 2005 304 5 0 0 0 - - -;
#X msg 1653 280 \$1 2;
#X msg 1810 284 \$1 2;
#X msg 1960 294 \$1 2;
#X obj 1653 305 line~;
#X obj 1810 307 line~;
#X obj 1960 317 line~;
#X obj 2146 367 *~;
#X obj 2165 326 osc~;
#X floatatom 2165 303 5 0 0 0 - - -;
#X msg 2120 293 \$1 2;
#X obj 2120 316 line~;
#X obj 2300 366 *~;
#X obj 2319 325 osc~;
#X floatatom 2319 302 5 0 0 0 - - -;
#X msg 2274 292 \$1 2;
#X obj 2274 315 line~;
#X obj 2460 365 *~;
#X obj 2479 324 osc~;
#X floatatom 2479 301 5 0 0 0 - - -;
#X msg 2434 291 \$1 2;
#X obj 2434 314 line~;
#X obj 2617 366 *~;
#X obj 2636 325 osc~;
#X floatatom 2636 302 5 0 0 0 - - -;
#X msg 2591 292 \$1 2;
#X obj 2591 315 line~;
#X obj 2777 365 *~;
#X obj 2796 324 osc~;
#X floatatom 2796 301 5 0 0 0 - - -;
#X msg 2751 291 \$1 2;
#X obj 2751 314 line~;
#X obj 2931 364 *~;
#X obj 2950 323 osc~;
#X floatatom 2950 300 5 0 0 0 - - -;
#X msg 2905 290 \$1 2;
#X obj 2905 313 line~;
#X obj 2930 389 /~ 20;
#X obj 2776 390 /~ 20;
#X obj 2616 391 /~ 20;
#X obj 2459 390 /~ 20;
#X obj 2299 391 /~ 20;
#X obj 2145 392 /~ 20;
#X obj 1985 393 /~ 20;
#X obj 1838 395 /~ 20;
#X obj 1683 393 /~ 20;
#X obj 1653 256 r h11;
#X obj 1810 261 r h12;
#X obj 1960 271 r h13;
#X obj 2120 270 r h14;
#X obj 2274 269 r h15;
#X obj 2434 268 r h16;
#X obj 2591 269 r h17;
#X obj 2751 268 r h18;
#X obj 2905 267 r h19;
#X floatatom 525 39 5 0 0 0 - - -;
#X msg 317 156 read histograms.txt cr;
#X obj 317 129 r start;
#X msg 85 25 \; pd dsp 1 \; start bang;
#X msg 183 25 \; pd dsp 0 \; start 0;
#X text 516 24 Duration;
#X obj 126 238 r p1;
#X obj 282 238 r p2;
#X obj 432 239 r p3;
#X obj 592 238 r p4;
#X obj 746 237 r p5;
#X obj 906 236 r p6;
#X obj 1063 237 r p7;
#X obj 1223 236 r p8;
#X obj 1377 235 r p9;
#X obj 1537 234 r p10;
#X obj 1699 245 r p11;
#X obj 1855 245 r p12;
#X obj 2005 246 r p13;
#X obj 2165 245 r p14;
#X obj 2319 244 r p15;
#X obj 2479 243 r p16;
#X obj 2636 244 r p17;
#X obj 2796 243 r p18;
#X obj 2950 242 r p19;
#X obj 467 88 metro 40;
#N canvas 0 50 1681 683 bellDesign 0;
#X obj 227 262 bng 15 250 50 0 empty empty empty 17 7 0 10 -262144
-1 -1;
#X obj 668 164 list;
#X obj 720 165 t l;
#X msg 692 129 clear;
#X obj 738 358 hradio 15 1 0 2 empty empty empty 0 -8 0 10 -204786
-1 -1 0;
#N canvas 971 205 1119 584 vListSort 0;
#X msg 116 309 add2 \$1;
#X obj 116 354 textfile;
#X obj 148 79 list length;
#X msg 175 120 resize \$1;
#X obj 234 495 array set \$0-sort;
#X obj 234 344 list split;
#X obj 234 390 list;
#X obj 262 365 list split 1;
#X obj 234 323 array get \$0-sort;
#X obj 148 100 t f f;
#X obj 234 302 t b f;
#X msg 73 331 rewind \, bang \, clear;
#X obj 116 246 sel 0 1;
#X obj 101 35 inlet;
#X obj 116 375 outlet;
#X obj 131 204 inlet;
#X obj 135 267 array max \$0-sort;
#X obj 116 288 array min \$0-sort;
#X obj 116 183 until;
#X obj 116 162 f;
#X obj 261 474 array define \$0-sort;
#X obj 261 432 list length;
#X msg 261 453 resize \$1;
#X obj 234 411 t l l;
#X obj 132 141 array set \$0-sort;
#X obj 116 225 f 0;
#X obj 101 56 t b b l l b;
#X text 287 19 vListSort by Jona: https://forum.pdpatchrepo.info/topic/12046/new-vanilla-list-sort
retrieved on 11/09/2020, f 65;
#X connect 0 0 1 0;
#X connect 1 0 14 0;
#X connect 2 0 9 0;
#X connect 3 0 20 0;
#X connect 5 0 6 0;
#X connect 5 1 7 0;
#X connect 6 0 23 0;
#X connect 7 1 6 1;
#X connect 8 0 5 0;
#X connect 9 0 19 1;
#X connect 9 1 3 0;
#X connect 10 0 8 0;
#X connect 10 1 5 1;
#X connect 11 0 1 0;
#X connect 12 0 17 0;
#X connect 12 1 16 0;
#X connect 13 0 26 0;
#X connect 15 0 25 1;
#X connect 16 0 0 0;
#X connect 16 1 10 0;
#X connect 17 0 0 0;
#X connect 17 1 10 0;
#X connect 18 0 25 0;
#X connect 19 0 18 0;
#X connect 21 0 22 0;
#X connect 22 0 20 0;
#X connect 23 0 4 0;
#X connect 23 1 21 0;
#X connect 25 0 12 0;
#X connect 26 0 11 0;
#X connect 26 1 19 0;
#X connect 26 2 24 0;
#X connect 26 3 2 0;
#X connect 26 4 6 1;
#X restore 669 378 pd vListSort;
#X text 741 335 menor a mayor | mayor a menor;
#X obj 213 82 bng 15 250 50 0 empty empty empty 17 7 0 10 -262144 -1
-1;
#X floatatom 227 442 5 0 0 0 - - -;
#X floatatom 329 371 5 0 0 0 - - -;
#X floatatom 278 371 5 0 0 0 - - -;
#N canvas 113 226 1199 802 randomMinMax 0;
#X obj 192 292 outlet;
#X obj 151 197 random;
#X obj 196 107 + 1;
#X obj 97 31 inlet;
#X obj 388 180 inlet;
#X obj 242 124 inlet;
#X obj 194 245 + 100;
#X obj 195 156 - 100;
#X obj 196 68 + 2000;
#X connect 1 0 6 0;
#X connect 2 0 7 0;
#X connect 3 0 1 0;
#X connect 3 0 8 0;
#X connect 4 0 8 1;
#X connect 5 0 6 1;
#X connect 5 0 7 1;
#X connect 6 0 0 0;
#X connect 7 0 1 1;
#X connect 8 0 2 0;
#X restore 227 409 pd randomMinMax;
#X text 282 352 min;
#X text 334 352 Max;
#X text 498 523 este siempre es cero \, después de darle al Clear
del List, f 27;
#X text 347 410 no saca decimales;
#X obj 213 105 t b b;
#X obj 144 104 loadbang;
#X obj 670 500 unpack f f f f f f f f f f f f f f f f f f f f, f 116
;
#X floatatom 670 522 5 0 0 0 - - -;
#X obj 213 146 t b b b b b b b b b b b b b b b b b b b;
#X obj 712 522 s p1;
#X obj 755 522 s p2;
#X obj 797 522 s p3;
#X obj 840 522 s p4;
#X obj 882 522 s p5;
#X obj 925 522 s p6;
#X obj 968 522 s p7;
#X obj 1010 523 s p8;
#X obj 1053 523 s p9;
#X obj 1095 524 s p10;
#X obj 1138 524 s p11;
#X obj 1181 523 s p12;
#X obj 1223 524 s p13;
#X obj 1266 524 s p14;
#X obj 1308 523 s p15;
#X obj 1351 523 s p16;
#X obj 1394 522 s p17;
#X obj 1436 523 s p18;
#X obj 1479 523 s p19;
#X text 236 78 new timbre \, pitch \, ...;
#X obj 211 28 inlet;
#X obj 281 306 inlet;
#X obj 330 305 inlet;
#X text 761 379 comment, f 65;
#X connect 0 0 11 0;
#X connect 1 0 2 0;
#X connect 1 0 5 0;
#X connect 2 0 1 1;
#X connect 3 0 1 1;
#X connect 4 0 5 1;
#X connect 5 0 18 0;
#X connect 7 0 16 0;
#X connect 8 0 1 0;
#X connect 9 0 11 2;
#X connect 10 0 11 1;
#X connect 11 0 8 0;
#X connect 16 0 20 0;
#X connect 16 1 3 0;
#X connect 17 0 7 0;
#X connect 18 0 19 0;
#X connect 18 1 21 0;
#X connect 18 2 22 0;
#X connect 18 3 23 0;
#X connect 18 4 24 0;
#X connect 18 5 25 0;
#X connect 18 6 26 0;
#X connect 18 7 27 0;
#X connect 18 8 28 0;
#X connect 18 9 29 0;
#X connect 18 10 30 0;
#X connect 18 11 31 0;
#X connect 18 12 32 0;
#X connect 18 13 33 0;
#X connect 18 14 34 0;
#X connect 18 15 35 0;
#X connect 18 16 36 0;
#X connect 18 17 37 0;
#X connect 18 18 38 0;
#X connect 18 19 39 0;
#X connect 20 0 0 0;
#X connect 20 1 0 0;
#X connect 20 2 0 0;
#X connect 20 3 0 0;
#X connect 20 4 0 0;
#X connect 20 5 0 0;
#X connect 20 6 0 0;
#X connect 20 7 0 0;
#X connect 20 8 0 0;
#X connect 20 9 0 0;
#X connect 20 10 0 0;
#X connect 20 11 0 0;
#X connect 20 12 0 0;
#X connect 20 13 0 0;
#X connect 20 14 0 0;
#X connect 20 15 0 0;
#X connect 20 16 0 0;
#X connect 20 17 0 0;
#X connect 20 18 0 0;
#X connect 41 0 7 0;
#X connect 42 0 10 0;
#X connect 43 0 9 0;
#X restore 731 103 pd bellDesign;
#X floatatom 825 60 5 0 0 0 - - -;
#X floatatom 774 60 5 0 0 0 - - -;
#X obj 717 59 bng 15 250 50 0 empty empty empty 17 7 0 10 -262144 -1
-1;
#X text 601 38 new timbre \, pitch \, ...;
#X text 772 28 min freq, f 4;
#X text 830 28 Max freq, f 4;
#X obj 520 592 vsl 15 128 0 1 0 0 empty empty empty 0 -9 0 10 -262144
-1 -1 0 1;
#X obj 560 592 vsl 15 128 0 1 0 0 empty empty empty 0 -9 0 10 -262144
-1 -1 0 1;
#X obj 603 592 vsl 15 128 0 1 0 0 empty empty empty 0 -9 0 10 -262144
-1 -1 0 1;
#X obj 520 565 r h1;
#X obj 560 565 r h2;
#X obj 603 565 r h3;
#X obj 650 593 vsl 15 128 0 1 0 0 empty empty empty 0 -9 0 10 -262144
-1 -1 0 1;
#X obj 690 593 vsl 15 128 0 1 0 0 empty empty empty 0 -9 0 10 -262144
-1 -1 0 1;
#X obj 733 593 vsl 15 128 0 1 0 0 empty empty empty 0 -9 0 10 -262144
-1 -1 0 1;
#X obj 650 566 r h4;
#X obj 690 566 r h5;
#X obj 733 566 r h6;
#X obj 778 592 vsl 15 128 0 1 0 0 empty empty empty 0 -9 0 10 -262144
-1 -1 0 1;
#X obj 818 592 vsl 15 128 0 1 0 0 empty empty empty 0 -9 0 10 -262144
-1 -1 0 1;
#X obj 861 592 vsl 15 128 0 1 0 0 empty empty empty 0 -9 0 10 -262144
-1 -1 0 1;
#X obj 908 593 vsl 15 128 0 1 0 0 empty empty empty 0 -9 0 10 -262144
-1 -1 0 1;
#X obj 778 565 r h7;
#X obj 818 565 r h8;
#X obj 861 565 r h9;
#X obj 908 566 r h10;
#X obj 956 594 vsl 15 128 0 1 0 0 empty empty empty 0 -9 0 10 -262144
-1 -1 0 1;
#X obj 956 567 r h11;
#X obj 1003 594 vsl 15 128 0 1 0 0 empty empty empty 0 -9 0 10 -262144
-1 -1 0 1;
#X obj 1051 595 vsl 15 128 0 1 0 0 empty empty empty 0 -9 0 10 -262144
-1 -1 0 1;
#X obj 1003 567 r h12;
#X obj 1051 568 r h13;
#X obj 1098 593 vsl 15 128 0 1 0 0 empty empty empty 0 -9 0 10 -262144
-1 -1 0 1;
#X obj 1146 594 vsl 15 128 0 1 0 0 empty empty empty 0 -9 0 10 -262144
-1 -1 0 1;
#X obj 1193 594 vsl 15 128 0 1 0 0 empty empty empty 0 -9 0 10 -262144
-1 -1 0 1;
#X obj 1241 595 vsl 15 128 0 1 0 0 empty empty empty 0 -9 0 10 -262144
-1 -1 0 1;
#X obj 1098 566 r h14;
#X obj 1146 567 r h15;
#X obj 1193 567 r h16;
#X obj 1241 568 r h17;
#X obj 1292 595 vsl 15 128 0 1 0 0 empty empty empty 0 -9 0 10 -262144
-1 -1 0 1;
#X obj 1339 595 vsl 15 128 0 1 0 0 empty empty empty 0 -9 0 10 -262144
-1 -1 0 1;
#X obj 1292 568 r h18;
#X obj 1339 568 r h19;
#X text 518 536 display of harmonic amplitude evolution;
#X connect 0 0 26 0;
#X connect 1 0 0 0;
#X connect 2 0 95 0;
#X connect 3 0 2 1;
#X connect 4 0 3 0;
#X connect 5 0 94 0;
#X connect 6 0 5 1;
#X connect 7 0 6 0;
#X connect 8 0 93 0;
#X connect 9 0 8 1;
#X connect 10 0 9 0;
#X connect 11 0 184 0;
#X connect 13 0 16 0;
#X connect 14 0 17 0;
#X connect 15 0 18 0;
#X connect 16 0 2 0;
#X connect 17 0 5 0;
#X connect 18 0 8 0;
#X connect 21 0 13 0;
#X connect 24 0 14 0;
#X connect 25 0 15 0;
#X connect 26 0 20 0;
#X connect 26 1 23 0;
#X connect 26 2 22 0;
#X connect 26 3 27 0;
#X connect 26 4 28 0;
#X connect 26 5 29 0;
#X connect 26 6 30 0;
#X connect 26 7 31 0;
#X connect 26 8 32 0;
#X connect 26 9 33 0;
#X connect 26 10 34 0;
#X connect 26 11 35 0;
#X connect 26 12 36 0;
#X connect 26 13 37 0;
#X connect 26 14 38 0;
#X connect 26 15 39 0;
#X connect 26 16 40 0;
#X connect 26 17 41 0;
#X connect 26 18 42 0;
#X connect 26 19 43 0;
#X connect 44 0 92 0;
#X connect 45 0 44 1;
#X connect 46 0 45 0;
#X connect 47 0 48 0;
#X connect 48 0 44 0;
#X connect 49 0 47 0;
#X connect 50 0 91 0;
#X connect 51 0 50 1;
#X connect 52 0 51 0;
#X connect 53 0 54 0;
#X connect 54 0 50 0;
#X connect 55 0 90 0;
#X connect 56 0 55 1;
#X connect 57 0 56 0;
#X connect 58 0 59 0;
#X connect 59 0 55 0;
#X connect 60 0 53 0;
#X connect 61 0 58 0;
#X connect 62 0 89 0;
#X connect 63 0 62 1;
#X connect 64 0 63 0;
#X connect 65 0 66 0;
#X connect 66 0 62 0;
#X connect 67 0 88 0;
#X connect 68 0 67 1;
#X connect 69 0 68 0;
#X connect 70 0 71 0;
#X connect 71 0 67 0;
#X connect 72 0 87 0;
#X connect 73 0 72 1;
#X connect 74 0 73 0;
#X connect 75 0 76 0;
#X connect 76 0 72 0;
#X connect 77 0 86 0;
#X connect 78 0 77 1;
#X connect 79 0 78 0;
#X connect 80 0 81 0;
#X connect 81 0 77 0;
#X connect 82 0 65 0;
#X connect 83 0 70 0;
#X connect 84 0 75 0;
#X connect 85 0 80 0;
#X connect 86 0 19 0;
#X connect 86 0 19 1;
#X connect 87 0 19 0;
#X connect 87 0 19 1;
#X connect 88 0 19 0;
#X connect 88 0 19 1;
#X connect 89 0 19 0;
#X connect 89 0 19 1;
#X connect 90 0 19 0;
#X connect 90 0 19 1;
#X connect 91 0 19 0;
#X connect 91 0 19 1;
#X connect 92 0 19 0;
#X connect 92 0 19 1;
#X connect 93 0 19 0;
#X connect 93 0 19 1;
#X connect 94 0 19 0;
#X connect 94 0 19 1;
#X connect 95 0 19 0;
#X connect 95 0 19 1;
#X connect 96 0 149 0;
#X connect 97 0 96 1;
#X connect 98 0 97 0;
#X connect 99 0 148 0;
#X connect 100 0 99 1;
#X connect 101 0 100 0;
#X connect 102 0 147 0;
#X connect 103 0 102 1;
#X connect 104 0 103 0;
#X connect 105 0 108 0;
#X connect 106 0 109 0;
#X connect 107 0 110 0;
#X connect 108 0 96 0;
#X connect 109 0 99 0;
#X connect 110 0 102 0;
#X connect 111 0 146 0;
#X connect 112 0 111 1;
#X connect 113 0 112 0;
#X connect 114 0 115 0;
#X connect 115 0 111 0;
#X connect 116 0 145 0;
#X connect 117 0 116 1;
#X connect 118 0 117 0;
#X connect 119 0 120 0;
#X connect 120 0 116 0;
#X connect 121 0 144 0;
#X connect 122 0 121 1;
#X connect 123 0 122 0;
#X connect 124 0 125 0;
#X connect 125 0 121 0;
#X connect 126 0 143 0;
#X connect 127 0 126 1;
#X connect 128 0 127 0;
#X connect 129 0 130 0;
#X connect 130 0 126 0;
#X connect 131 0 142 0;
#X connect 132 0 131 1;
#X connect 133 0 132 0;
#X connect 134 0 135 0;
#X connect 135 0 131 0;
#X connect 136 0 141 0;
#X connect 137 0 136 1;
#X connect 138 0 137 0;
#X connect 139 0 140 0;
#X connect 140 0 136 0;
#X connect 141 0 19 0;
#X connect 141 0 19 1;
#X connect 142 0 19 0;
#X connect 142 0 19 1;
#X connect 143 0 19 0;
#X connect 143 0 19 1;
#X connect 144 0 19 0;
#X connect 144 0 19 1;
#X connect 145 0 19 0;
#X connect 145 0 19 1;
#X connect 146 0 19 0;
#X connect 146 0 19 1;
#X connect 147 0 19 0;
#X connect 147 0 19 1;
#X connect 148 0 19 0;
#X connect 148 0 19 1;
#X connect 149 0 19 0;
#X connect 149 0 19 1;
#X connect 150 0 105 0;
#X connect 151 0 106 0;
#X connect 152 0 107 0;
#X connect 153 0 114 0;
#X connect 154 0 119 0;
#X connect 155 0 124 0;
#X connect 156 0 129 0;
#X connect 157 0 134 0;
#X connect 158 0 139 0;
#X connect 159 0 184 1;
#X connect 160 0 0 0;
#X connect 161 0 160 0;
#X connect 165 0 4 0;
#X connect 166 0 7 0;
#X connect 167 0 10 0;
#X connect 168 0 46 0;
#X connect 169 0 52 0;
#X connect 170 0 57 0;
#X connect 171 0 64 0;
#X connect 172 0 69 0;
#X connect 173 0 74 0;
#X connect 174 0 79 0;
#X connect 175 0 98 0;
#X connect 176 0 101 0;
#X connect 177 0 104 0;
#X connect 178 0 113 0;
#X connect 179 0 118 0;
#X connect 180 0 123 0;
#X connect 181 0 128 0;
#X connect 182 0 133 0;
#X connect 183 0 138 0;
#X connect 184 0 0 0;
#X connect 186 0 185 2;
#X connect 187 0 185 1;
#X connect 188 0 185 0;
#X connect 195 0 192 0;
#X connect 196 0 193 0;
#X connect 197 0 194 0;
#X connect 201 0 198 0;
#X connect 202 0 199 0;
#X connect 203 0 200 0;
#X connect 208 0 204 0;
#X connect 209 0 205 0;
#X connect 210 0 206 0;
#X connect 211 0 207 0;
#X connect 213 0 212 0;
#X connect 216 0 214 0;
#X connect 217 0 215 0;
#X connect 222 0 218 0;
#X connect 223 0 219 0;
#X connect 224 0 220 0;
#X connect 225 0 221 0;
#X connect 228 0 226 0;
#X connect 229 0 227 0;
